<svg width="116" height="42" viewBox="0 0 116 42" fill="none" xmlns="http://www.w3.org/2000/svg">
<path d="M14.0572 0.0527344H21.4165L35.1363 41.2223H27.6719L24.2025 30.9589H11.166L7.74919 41.2223H0.28476L14.0572 0.0527344ZM22.8883 25.3343L17.7368 8.34464L12.375 25.3343H22.8883Z" fill="white"/>
<path d="M43.1198 0.0527344L52.3715 15.2449L61.5707 0.0527344H69.4556L56.5243 20.9275L69.0351 41.2223H61.1501L52.3715 26.61L43.5404 41.2223H35.6028L48.1137 20.9275L35.1823 0.0527344H43.1198Z" fill="white"/>
<path d="M72.8464 41.2223V0.0527344H80.0616V41.2223H72.8464Z" fill="#EC7979"/>
<path d="M115.57 7.06896H103.701V41.2223H96.5381V7.06896H84.6696V0.0527344H115.57V7.06896Z" fill="#EC7979"/>
</svg>
