<svg width="46" height="45" viewBox="0 0 46 45" fill="none" xmlns="http://www.w3.org/2000/svg">
<path fill-rule="evenodd" clip-rule="evenodd" d="M23.0495 3.75C12.4906 3.75 3.93268 12.1219 3.93268 22.4512C3.93268 30.7125 9.4086 37.7231 17.0063 40.1981C17.9627 40.3669 18.3077 39.7912 18.3077 39.2962C18.3077 38.8519 18.2923 37.6744 18.2866 36.1162C12.9678 37.245 11.8447 33.6075 11.8447 33.6075C10.9783 31.4475 9.72293 30.8719 9.72293 30.8719C7.98835 29.7112 9.85518 29.7375 9.85518 29.7375C11.7757 29.8687 12.7819 31.665 12.7819 31.665C14.4878 34.5225 17.2593 33.6975 18.3441 33.2194C18.5185 32.01 19.0168 31.185 19.5612 30.7181C15.3177 30.2475 10.8557 28.6425 10.8557 21.4744C10.8557 19.4362 11.6013 17.7637 12.8183 16.4587C12.6248 15.9844 11.9635 14.0812 13.0081 11.5087C13.0081 11.5087 14.6123 11.0044 18.2636 13.4231C19.823 13.0081 21.4315 12.7963 23.0476 12.7931C24.6637 12.7957 26.2723 13.0075 27.8316 13.4231C31.4848 11.0025 33.0871 11.5087 33.0871 11.5087C34.1317 14.0812 33.4762 15.9844 33.2768 16.4587C34.5035 17.7637 35.2395 19.4344 35.2395 21.4744C35.2395 28.6612 30.7737 30.24 26.5148 30.7031C27.1953 31.2806 27.8086 32.4206 27.8086 34.1644C27.8086 36.6656 27.7856 38.6831 27.7856 39.2962C27.7856 39.7969 28.1268 40.3781 29.1023 40.1944C36.6962 37.7156 42.1663 30.7106 42.1663 22.4512C42.1663 12.1219 33.6084 3.75 23.0495 3.75Z" fill="#CCCCCC"/>
</svg>
