<svg width="45" height="45" viewBox="0 0 45 45" fill="none" xmlns="http://www.w3.org/2000/svg">
<path d="M39.2757 15.5719C39.2568 14.1518 38.9909 12.7458 38.4901 11.4169C38.0557 10.2959 37.3923 9.27785 36.5423 8.42779C35.6922 7.57772 34.6742 6.91433 33.5532 6.47998C32.2413 5.98753 30.8554 5.72125 29.4544 5.69248C27.6507 5.61186 27.0788 5.58936 22.5001 5.58936C17.9213 5.58936 17.3344 5.58936 15.5438 5.69248C14.1435 5.72146 12.7582 5.98773 11.4469 6.47998C10.3258 6.91402 9.30761 7.57731 8.45751 8.42742C7.6074 9.27752 6.94411 10.2957 6.51007 11.4169C6.01663 12.7277 5.75093 14.1133 5.72445 15.5137C5.64382 17.3194 5.61945 17.8912 5.61945 22.47C5.61945 27.0487 5.61945 27.6337 5.72445 29.4262C5.75257 30.8287 6.01695 32.2125 6.51007 33.5269C6.94484 34.6477 7.60863 35.6654 8.45901 36.5152C9.3094 37.3649 10.3277 38.0279 11.4488 38.4619C12.7565 38.9741 14.142 39.2594 15.5457 39.3056C17.3513 39.3862 17.9232 39.4106 22.5019 39.4106C27.0807 39.4106 27.6676 39.4106 29.4582 39.3056C30.8591 39.278 32.2451 39.0124 33.5569 38.52C34.6776 38.0851 35.6954 37.4216 36.5454 36.5716C37.3954 35.7216 38.059 34.7038 38.4938 33.5831C38.9869 32.2706 39.2513 30.8869 39.2794 29.4825C39.3601 27.6787 39.3844 27.1069 39.3844 22.5262C39.3807 17.9475 39.3807 17.3662 39.2757 15.5719ZM22.4888 31.1287C17.7001 31.1287 13.8207 27.2494 13.8207 22.4606C13.8207 17.6719 17.7001 13.7925 22.4888 13.7925C24.7878 13.7925 26.9925 14.7057 28.6181 16.3313C30.2437 17.9569 31.1569 20.1617 31.1569 22.4606C31.1569 24.7595 30.2437 26.9643 28.6181 28.5899C26.9925 30.2155 24.7878 31.1287 22.4888 31.1287ZM31.5019 15.4931C31.2364 15.4934 30.9735 15.4412 30.7282 15.3398C30.4828 15.2383 30.2599 15.0894 30.0722 14.9016C29.8844 14.7139 29.7355 14.491 29.6341 14.2456C29.5326 14.0003 29.4804 13.7374 29.4807 13.4719C29.4807 13.2065 29.533 12.9438 29.6345 12.6987C29.736 12.4536 29.8848 12.2309 30.0724 12.0433C30.26 11.8557 30.4828 11.7069 30.7279 11.6053C30.973 11.5038 31.2357 11.4515 31.501 11.4515C31.7663 11.4515 32.029 11.5038 32.2741 11.6053C32.5193 11.7069 32.742 11.8557 32.9296 12.0433C33.1172 12.2309 33.266 12.4536 33.3675 12.6987C33.4691 12.9438 33.5213 13.2065 33.5213 13.4719C33.5213 14.5894 32.6176 15.4931 31.5019 15.4931Z" fill="#CCCCCC"/>
<path d="M22.489 28.0912C25.5987 28.0912 28.1196 25.5703 28.1196 22.4606C28.1196 19.3509 25.5987 16.83 22.489 16.83C19.3793 16.83 16.8584 19.3509 16.8584 22.4606C16.8584 25.5703 19.3793 28.0912 22.489 28.0912Z" fill="#CCCCCC"/>
</svg>
