<svg width="64" height="64" viewBox="0 0 64 64" fill="none" xmlns="http://www.w3.org/2000/svg">
<path d="M55.8587 22.1466C55.8318 20.1269 55.4538 18.1273 54.7414 16.2372C54.1237 14.643 53.1802 13.1951 51.9712 11.9861C50.7622 10.7771 49.3143 9.83362 47.7201 9.21589C45.8543 8.5155 43.8832 8.1368 41.8907 8.09589C39.3254 7.98122 38.5121 7.94922 32.0001 7.94922C25.4881 7.94922 24.6534 7.94922 22.1067 8.09589C20.1152 8.1371 18.145 8.5158 16.2801 9.21589C14.6856 9.83319 13.2375 10.7765 12.0284 11.9856C10.8194 13.1946 9.87604 14.6427 9.25873 16.2372C8.55695 18.1016 8.17906 20.0722 8.1414 22.0639C8.02673 24.6319 7.99207 25.4452 7.99207 31.9572C7.99207 38.4692 7.99207 39.3012 8.1414 41.8506C8.1814 43.8452 8.5574 45.8132 9.25873 47.6826C9.87707 49.2766 10.8211 50.7241 12.0306 51.9326C13.24 53.1411 14.6882 54.0841 16.2827 54.7012C18.1426 55.4298 20.1131 55.8356 22.1094 55.9012C24.6774 56.0159 25.4907 56.0506 32.0027 56.0506C38.5147 56.0506 39.3494 56.0506 41.8961 55.9012C43.8885 55.862 45.8597 55.4842 47.7254 54.7839C49.3192 54.1654 50.7668 53.2217 51.9756 52.0128C53.1845 50.8039 54.1283 49.3564 54.7467 47.7626C55.4481 45.8959 55.8241 43.9279 55.8641 41.9306C55.9787 39.3652 56.0134 38.5519 56.0134 32.0372C56.0081 25.5252 56.0081 24.6986 55.8587 22.1466ZM31.9841 44.2719C25.1734 44.2719 19.6561 38.7546 19.6561 31.9439C19.6561 25.1332 25.1734 19.6159 31.9841 19.6159C35.2537 19.6159 38.3893 20.9147 40.7013 23.2267C43.0132 25.5386 44.3121 28.6743 44.3121 31.9439C44.3121 35.2135 43.0132 38.3492 40.7013 40.6611C38.3893 42.973 35.2537 44.2719 31.9841 44.2719ZM44.8027 22.0346C44.4251 22.0349 44.0512 21.9608 43.7022 21.8164C43.3533 21.6721 43.0363 21.4604 42.7693 21.1934C42.5023 20.9264 42.2905 20.6093 42.1462 20.2604C42.0018 19.9115 41.9277 19.5375 41.9281 19.1599C41.9281 18.7826 42.0024 18.4089 42.1468 18.0603C42.2912 17.7117 42.5028 17.3949 42.7697 17.1281C43.0365 16.8613 43.3532 16.6497 43.7018 16.5053C44.0504 16.3609 44.4241 16.2866 44.8014 16.2866C45.1787 16.2866 45.5524 16.3609 45.901 16.5053C46.2496 16.6497 46.5663 16.8613 46.8332 17.1281C47.1 17.3949 47.3116 17.7117 47.456 18.0603C47.6004 18.4089 47.6747 18.7826 47.6747 19.1599C47.6747 20.7492 46.3894 22.0346 44.8027 22.0346Z" fill="#CCCCCC"/>
<path d="M31.9843 39.9519C36.407 39.9519 39.9923 36.3666 39.9923 31.9439C39.9923 27.5212 36.407 23.9359 31.9843 23.9359C27.5616 23.9359 23.9763 27.5212 23.9763 31.9439C23.9763 36.3666 27.5616 39.9519 31.9843 39.9519Z" fill="#CCCCCC"/>
</svg>
