<svg width="64" height="64" viewBox="0 0 64 64" fill="none" xmlns="http://www.w3.org/2000/svg">
<path d="M53.3333 8H10.6667C9.95942 8 9.28115 8.28095 8.78105 8.78105C8.28095 9.28115 8 9.95942 8 10.6667V53.3333C8 54.0406 8.28095 54.7189 8.78105 55.219C9.28115 55.719 9.95942 56 10.6667 56H53.3333C54.0406 56 54.7189 55.719 55.219 55.219C55.719 54.7189 56 54.0406 56 53.3333V10.6667C56 9.95942 55.719 9.28115 55.219 8.78105C54.7189 8.28095 54.0406 8 53.3333 8ZM22.2373 48.8987H15.112V25.992H22.2373V48.8987ZM18.6747 22.864C17.5799 22.864 16.5299 22.4291 15.7557 21.6549C14.9816 20.8808 14.5467 19.8308 14.5467 18.736C14.5467 17.6412 14.9816 16.5912 15.7557 15.8171C16.5299 15.0429 17.5799 14.608 18.6747 14.608C19.7695 14.608 20.8195 15.0429 21.5936 15.8171C22.3678 16.5912 22.8027 17.6412 22.8027 18.736C22.8027 19.8308 22.3678 20.8808 21.5936 21.6549C20.8195 22.4291 19.7695 22.864 18.6747 22.864ZM48.9013 48.8987H41.784V37.76C41.784 35.104 41.736 31.688 38.0827 31.688C34.376 31.688 33.8133 34.584 33.8133 37.5733V48.9013H26.7013V25.9947H33.528V29.1253H33.6267C34.5733 27.3253 36.8987 25.4267 40.3573 25.4267C47.568 25.4267 48.8987 30.168 48.8987 36.3387V48.8987H48.9013Z" fill="#CCCCCC"/>
</svg>
