<svg width="46" height="45" viewBox="0 0 46 45" fill="none" xmlns="http://www.w3.org/2000/svg">
<path d="M17.3267 40.3875C19.1667 40.9313 21.0259 41.25 23 41.25C28.0834 41.25 32.9585 39.2746 36.5529 35.7583C40.1474 32.2419 42.1667 27.4728 42.1667 22.5C42.1667 20.0377 41.671 17.5995 40.7077 15.3247C39.7445 13.0498 38.3327 10.9828 36.5529 9.24175C34.7731 7.50065 32.6602 6.11953 30.3348 5.17726C28.0094 4.23498 25.517 3.75 23 3.75C20.483 3.75 17.9907 4.23498 15.6653 5.17726C13.3399 6.11953 11.227 7.50065 9.44716 9.24175C5.85271 12.7581 3.83337 17.5272 3.83337 22.5C3.83337 30.4688 8.95087 37.3125 16.1767 40.0125C16.0042 38.55 15.8317 36.1312 16.1767 34.4625L18.3809 25.2C18.3809 25.2 17.825 24.1125 17.825 22.3875C17.825 19.8 19.4734 17.8687 21.3517 17.8687C23 17.8687 23.7667 19.05 23.7667 20.5688C23.7667 22.1812 22.6742 24.4875 22.1184 26.7C21.7925 28.5375 23.115 30.15 25.0317 30.15C28.4434 30.15 31.0884 26.5875 31.0884 21.5625C31.0884 17.0625 27.7917 13.9875 23.0575 13.9875C17.6525 13.9875 14.4709 17.925 14.4709 22.0688C14.4709 23.6813 15.0075 25.3125 15.8892 26.3812C16.0617 26.4937 16.0617 26.6437 16.0042 26.925L15.4484 28.9688C15.4484 29.2875 15.2375 29.4 14.9117 29.175C12.4584 28.125 11.04 24.7125 11.04 21.9562C11.04 16.0312 15.3334 10.65 23.6134 10.65C30.2067 10.65 35.3434 15.2813 35.3434 21.4313C35.3434 27.8813 31.2609 33.0562 25.415 33.0562C23.5559 33.0562 21.735 32.0812 21.0834 30.9375L19.7992 35.3813C19.3584 36.9938 18.1509 39.15 17.3267 40.4437V40.3875Z" fill="#CCCCCC"/>
</svg>
