<svg width="45" height="45" viewBox="0 0 45 45" fill="none" xmlns="http://www.w3.org/2000/svg">
<path d="M11.5875 37.5001C13.845 37.5001 15.675 35.67 15.675 33.4126C15.675 31.1551 13.845 29.3251 11.5875 29.3251C9.33004 29.3251 7.5 31.1551 7.5 33.4126C7.5 35.67 9.33004 37.5001 11.5875 37.5001Z" fill="#CCCCCC"/>
<path d="M7.5 8.32495V13.6312C20.6813 13.6312 31.3687 24.3187 31.3687 37.5H36.675C36.675 21.3937 23.6063 8.32495 7.5 8.32495ZM7.5 18.9375V24.2437C14.8125 24.2437 20.7562 30.1875 20.7562 37.5H26.0625C26.0625 27.2437 17.7562 18.9375 7.5 18.9375Z" fill="#CCCCCC"/>
</svg>
