<svg width="64" height="64" viewBox="0 0 64 64" fill="none" xmlns="http://www.w3.org/2000/svg">
<path d="M16.48 53.3335C19.6906 53.3335 22.2933 50.7307 22.2933 47.5201C22.2933 44.3095 19.6906 41.7068 16.48 41.7068C13.2693 41.7068 10.6666 44.3095 10.6666 47.5201C10.6666 50.7307 13.2693 53.3335 16.48 53.3335Z" fill="#CCCCCC"/>
<path d="M10.6666 11.84V19.3866C29.4133 19.3866 44.6133 34.5866 44.6133 53.3333H52.16C52.16 30.4266 33.5733 11.84 10.6666 11.84ZM10.6666 26.9333V34.48C21.0666 34.48 29.52 42.9333 29.52 53.3333H37.0666C37.0666 38.7466 25.2533 26.9333 10.6666 26.9333Z" fill="#CCCCCC"/>
</svg>
