<svg width="46" height="45" viewBox="0 0 46 45" fill="none" xmlns="http://www.w3.org/2000/svg">
<path d="M37.63 14.9945C37.6549 15.3226 37.6549 15.6489 37.6549 15.9751C37.6549 25.9595 29.8866 37.4645 15.6899 37.4645C11.316 37.4645 7.25271 36.2251 3.83337 34.0726C4.45437 34.142 5.05237 34.1664 5.69829 34.1664C9.17319 34.1746 12.5497 33.0379 15.2835 30.9395C13.6724 30.911 12.1106 30.391 10.8162 29.4521C9.52185 28.5133 8.55946 27.2024 8.06346 25.7026C8.54071 25.772 9.01987 25.8189 9.52204 25.8189C10.214 25.8189 10.9097 25.7251 11.5556 25.562C9.80716 25.2167 8.23495 24.2895 7.10631 22.9383C5.97767 21.5871 5.36229 19.8951 5.36479 18.1501V18.0564C6.39404 18.617 7.58812 18.9676 8.85312 19.0145C7.79338 18.3256 6.92442 17.3908 6.32378 16.2935C5.72313 15.1962 5.40947 13.9705 5.41079 12.7258C5.41079 11.3233 5.79221 10.037 6.46112 8.91577C8.40106 11.2502 10.8206 13.1599 13.563 14.5214C16.3054 15.8828 19.3096 16.6655 22.381 16.8189C22.2621 16.2564 22.1893 15.6733 22.1893 15.0883C22.1888 14.0963 22.3881 13.114 22.7759 12.1975C23.1637 11.2809 23.7324 10.4482 24.4494 9.74674C25.1664 9.04533 26.0177 8.48904 26.9546 8.10966C27.8915 7.73029 28.8956 7.53527 29.9096 7.53577C32.133 7.53577 34.1397 8.44702 35.5504 9.92077C37.2788 9.5938 38.9362 8.97656 40.4494 8.09639C39.8732 9.84167 38.6664 11.3216 37.055 12.2589C38.5879 12.0879 40.086 11.6935 41.4997 11.0889C40.4439 12.5947 39.1355 13.9152 37.63 14.9945Z" fill="#CCCCCC"/>
</svg>
