<svg width="64" height="64" viewBox="0 0 64 64" fill="none" xmlns="http://www.w3.org/2000/svg">
<path d="M52.3546 21.3254C52.3893 21.7921 52.3893 22.2561 52.3893 22.7201C52.3893 36.9201 41.5813 53.2827 21.8293 53.2827C15.744 53.2827 10.0906 51.5201 5.33331 48.4587C6.19731 48.5574 7.02931 48.5921 7.92798 48.5921C12.7626 48.6038 17.4604 46.9871 21.264 44.0027C19.0224 43.9622 16.8495 43.2226 15.0486 41.8874C13.2477 40.5521 11.9087 38.6878 11.2186 36.5547C11.8826 36.6534 12.5493 36.7201 13.248 36.7201C14.2106 36.7201 15.1786 36.5867 16.0773 36.3547C13.6447 35.8636 11.4572 34.545 9.88696 32.6232C8.31668 30.7015 7.46049 28.2951 7.46398 25.8134V25.6801C8.89598 26.4774 10.5573 26.9761 12.3173 27.0427C10.8429 26.063 9.6339 24.7335 8.79822 23.1729C7.96254 21.6122 7.52615 19.869 7.52798 18.0987C7.52798 16.1041 8.05865 14.2747 8.98931 12.6801C11.6883 16.0001 15.0547 18.7162 18.8702 20.6525C22.6858 22.5888 26.8655 23.702 31.1386 23.9201C30.9733 23.1201 30.872 22.2907 30.872 21.4587C30.8713 20.048 31.1486 18.6509 31.6882 17.3474C32.2277 16.0439 33.0189 14.8595 34.0165 13.8619C35.014 12.8643 36.1984 12.0732 37.5019 11.5336C38.8055 10.9941 40.2025 10.7167 41.6133 10.7174C44.7066 10.7174 47.4986 12.0134 49.4613 14.1094C51.866 13.6444 54.1721 12.7665 56.2773 11.5147C55.4757 13.9969 53.7967 16.1017 51.5546 17.4347C53.6874 17.1915 55.7718 16.6306 57.7386 15.7707C56.2697 17.9123 54.4494 19.7903 52.3546 21.3254Z" fill="#CCCCCC"/>
</svg>
