<svg width="65" height="24" viewBox="0 0 65 24" fill="none" xmlns="http://www.w3.org/2000/svg">
<path d="M7.70287 0.76709H11.8189L19.4924 23.6823H15.3175L13.3771 17.9697H6.08585L4.17484 23.6823H0L7.70287 0.76709ZM12.6421 14.839L9.76089 5.38241L6.76206 14.839H12.6421Z" fill="white"/>
<path d="M23.9575 0.76709L29.132 9.22314L34.277 0.76709H38.6871L31.4546 12.3861L38.4519 23.6823H34.0418L29.132 15.549L24.1927 23.6823H19.7533L26.7506 12.3861L19.5181 0.76709H23.9575Z" fill="white"/>
<path d="M40.7887 23.6823V0.76709H44.8459V23.6823H40.7887Z" fill="#EC7979"/>
<path d="M64.8126 4.67236H58.1388V23.6823H54.1109V4.67236H47.4371V0.76709H64.8126V4.67236Z" fill="#EC7979"/>
</svg>
