<svg width="256" height="256" viewBox="0 0 256 256" fill="none" xmlns="http://www.w3.org/2000/svg">
<rect width="256" height="256" fill="black"/>
<path d="M46.6848 90H60.4095L85.9963 167H72.0755L65.6053 147.804H41.293L34.9208 167H21L46.6848 90ZM63.1545 137.285L53.5472 105.508L43.5477 137.285H63.1545Z" fill="white"/>
<path d="M100.885 90L118.139 118.414L135.295 90H150L125.884 129.042L149.216 167H134.511L118.139 139.67L101.669 167H86.8663L110.198 129.042L86.0821 90H100.885Z" fill="white"/>
<path d="M156 167V90H169.511V167H156Z" fill="#EC7979"/>
<path d="M236 103.123H213.776V167H200.363V103.123H178.139V90H236V103.123Z" fill="#EC7979"/>
</svg>
